<?xml version="1.0" encoding="UTF-8" standalone="no"?>
<!DOCTYPE svg PUBLIC "-//W3C//DTD SVG 1.1//EN" "http://www.w3.org/Graphics/SVG/1.1/DTD/svg11.dtd">
<svg width="100%" height="100%" viewBox="0 0 2608 452" version="1.1" xmlns="http://www.w3.org/2000/svg" xmlns:xlink="http://www.w3.org/1999/xlink" xml:space="preserve" xmlns:serif="http://www.serif.com/" style="fill-rule:evenodd;clip-rule:evenodd;stroke-linejoin:round;stroke-miterlimit:2;">
    <g transform="matrix(1,0,0,1,-396.01,-1014.49)">
        <g>
            <g transform="matrix(0.211563,0,0,0.211563,2338.54,971.698)">
                <g id="icons8_Qr_Code_1.svg" transform="matrix(1.18575,1.18575,-1.18575,1.18575,2155.94,1207.16)">
                    <g transform="matrix(1,0,0,1,-256,-256)">
                        <rect x="168" y="312" width="32" height="32" style="fill:url(#_Linear1);fill-rule:nonzero;"/>
                        <rect x="312" y="168" width="32" height="32" style="fill:url(#_Linear2);fill-rule:nonzero;"/>
                        <path d="M416,56L96,56C73.944,56 56,73.944 56,96L56,416C56,438.056 73.944,456 96,456L416,456C438.056,456 456,438.056 456,416L456,96C456,73.944 438.056,56 416,56ZM440,416C440,429.232 429.232,440 416,440L96,440C82.768,440 72,429.232 72,416L72,96C72,82.768 82.768,72 96,72L416,72C429.232,72 440,82.768 440,96L440,416Z" style="fill:url(#_Linear3);fill-rule:nonzero;"/>
                        <path d="M232,264L136,264C127.176,264 120,271.176 120,280L120,376C120,384.824 127.176,392 136,392L232,392C240.824,392 248,384.824 248,376L248,280C248,271.176 240.824,264 232,264ZM136,376L136,280L232,280L232.016,376L136,376Z" style="fill:url(#_Linear4);fill-rule:nonzero;"/>
                        <path d="M200,296L168,296C159.176,296 152,303.176 152,312L152,344C152,352.824 159.176,360 168,360L200,360C208.824,360 216,352.824 216,344L216,312C216,303.176 208.824,296 200,296ZM168,344L168,312L200,312L200.016,344L168,344Z" style="fill:url(#_Linear5);fill-rule:nonzero;"/>
                        <path d="M376,120L280,120C271.176,120 264,127.176 264,136L264,232C264,240.824 271.176,248 280,248L376,248C384.824,248 392,240.824 392,232L392,136C392,127.176 384.824,120 376,120ZM280,232L280,136L376,136L376.016,232L280,232Z" style="fill:url(#_Linear6);fill-rule:nonzero;"/>
                        <path d="M344,152L312,152C303.176,152 296,159.176 296,168L296,200C296,208.824 303.176,216 312,216L344,216C352.824,216 360,208.824 360,200L360,168C360,159.176 352.824,152 344,152ZM312,200L312,168L344,168L344.016,200L312,200Z" style="fill:url(#_Linear7);fill-rule:nonzero;"/>
                        <path d="M232,120L136,120C127.176,120 120,127.176 120,136L120,232C120,240.824 127.176,248 136,248L232,248C240.824,248 248,240.824 248,232L248,136C248,127.176 240.824,120 232,120ZM136,232L136,136L232,136L232.016,232L136,232Z" style="fill:url(#_Linear8);fill-rule:nonzero;"/>
                        <path d="M200,152L168,152C159.176,152 152,159.176 152,168L152,200C152,208.824 159.176,216 168,216L200,216C208.824,216 216,208.824 216,200L216,168C216,159.176 208.824,152 200,152ZM168,200L168,168L200,168L200.016,200L168,200Z" style="fill:url(#_Linear9);fill-rule:nonzero;"/>
                        <path d="M280,312L312,312L312,344L328,344L328,312C328,303.176 320.824,296 312,296L280,296L280,280L296,280L296,264L280,264C271.176,264 264,271.176 264,280L264,320L280,320L280,312Z" style="fill:url(#_Linear10);fill-rule:nonzero;"/>
                        <path d="M280,336L264,336L264,376C264,384.824 271.176,392 280,392L296,392L296,376L280,376L280,336Z" style="fill:url(#_Linear11);fill-rule:nonzero;"/>
                        <rect x="312" y="264" width="16" height="16" style="fill:url(#_Linear12);fill-rule:nonzero;"/>
                        <path d="M376,264L344,264L344,280L376,280L376,320L392,320L392,280C392,271.176 384.824,264 376,264Z" style="fill:url(#_Linear13);fill-rule:nonzero;"/>
                        <path d="M328,360L312,360L312,376C312,384.824 319.176,392 328,392L344,392L344,376L328,376L328,360Z" style="fill:url(#_Linear14);fill-rule:nonzero;"/>
                        <path d="M376,376L360,376L360,392L376,392C384.824,392 392,384.824 392,376L392,336L376,336L376,376Z" style="fill:url(#_Linear15);fill-rule:nonzero;"/>
                        <path d="M368,360L368,344C368,335.176 360.824,328 352,328L344,328L344,344L352,344L352,360L368,360Z" style="fill:url(#_Linear16);fill-rule:nonzero;"/>
                        <rect x="352" y="296" width="16" height="16" style="fill:url(#_Linear17);fill-rule:nonzero;"/>
                        <rect x="288" y="344" width="16" height="16" style="fill:url(#_Linear18);fill-rule:nonzero;"/>
                        <rect x="168" y="168" width="32" height="32" style="fill:url(#_Linear19);fill-rule:nonzero;"/>
                    </g>
                </g>
                <g id="icons8_Tag.svg" transform="matrix(4.16667,0,0,4.16667,2075.68,1268.94)">
                    <g transform="matrix(1,0,0,1,-256,-256)">
                        <circle cx="368" cy="144" r="32" style="fill:url(#_Linear20);"/>
                        <path d="M242.896,461.736C234.344,461.736 226.312,458.408 220.272,452.36L59.64,291.728C53.592,285.688 50.264,277.656 50.264,269.104C50.264,260.56 53.592,252.528 59.64,246.48L248.744,57.376C254.792,51.328 262.824,48 271.368,48L432,48C449.648,48 464,62.352 464,80L464,240.632C464,249.176 460.672,257.208 454.624,263.256L265.52,452.36C259.48,458.408 251.448,461.736 242.896,461.736ZM271.368,64C267.096,64 263.08,65.664 260.056,68.688L70.952,257.792C67.928,260.816 66.264,264.832 66.264,269.104C66.264,273.376 67.928,277.392 70.952,280.416L231.584,441.048C237.632,447.096 248.16,447.096 254.208,441.048L443.312,251.944C446.336,248.92 448,244.904 448,240.632L448,80C448,71.176 440.824,64 432,64L271.368,64ZM244.344,427.656L84.344,267.656L95.656,256.344L255.656,416.344L244.344,427.656ZM268.344,403.656L108.344,243.656L119.656,232.344L279.656,392.344L268.344,403.656ZM368,184C345.944,184 328,166.056 328,144C328,121.944 345.944,104 368,104C390.056,104 408,121.944 408,144C408,166.056 390.056,184 368,184ZM368,120C354.768,120 344,130.768 344,144C344,157.232 354.768,168 368,168C381.232,168 392,157.232 392,144C392,130.768 381.232,120 368,120Z" style="fill:url(#_Linear21);fill-rule:nonzero;"/>
                    </g>
                </g>
            </g>
            <g transform="matrix(9.79543,0,0,9.79543,-10765.3,-10680.4)">
                <g transform="matrix(27.2236,0,0,27.2236,1358.05,1223.54)">
                </g>
                <text x="1139.14px" y="1223.54px" style="font-family:'Kingthings Organica';font-size:27.224px;fill:rgb(69,5,93);">Digital Identity T<tspan x="1331.01px 1344.41px " y="1223.54px 1223.54px ">ag</tspan></text>
            </g>
        </g>
    </g>
    <defs>
        <linearGradient id="_Linear1" x1="0" y1="0" x2="1" y2="0" gradientUnits="userSpaceOnUse" gradientTransform="matrix(2.14656e-15,35.056,-35.056,2.14656e-15,184,312)"><stop offset="0" style="stop-color:rgb(109,199,255);stop-opacity:1"/><stop offset="1" style="stop-color:rgb(230,171,255);stop-opacity:1"/></linearGradient>
        <linearGradient id="_Linear2" x1="0" y1="0" x2="1" y2="0" gradientUnits="userSpaceOnUse" gradientTransform="matrix(2.2656e-15,37,-37,2.2656e-15,328,168)"><stop offset="0" style="stop-color:rgb(109,199,255);stop-opacity:1"/><stop offset="1" style="stop-color:rgb(230,171,255);stop-opacity:1"/></linearGradient>
        <linearGradient id="_Linear3" x1="0" y1="0" x2="1" y2="0" gradientUnits="userSpaceOnUse" gradientTransform="matrix(2.48304e-14,405.512,-405.512,2.48304e-14,256,54.664)"><stop offset="0" style="stop-color:rgb(26,109,255);stop-opacity:1"/><stop offset="1" style="stop-color:rgb(200,34,255);stop-opacity:1"/></linearGradient>
        <linearGradient id="_Linear4" x1="0" y1="0" x2="1" y2="0" gradientUnits="userSpaceOnUse" gradientTransform="matrix(2.48304e-14,405.512,-405.512,2.48304e-14,184,54.664)"><stop offset="0" style="stop-color:rgb(26,109,255);stop-opacity:1"/><stop offset="1" style="stop-color:rgb(200,34,255);stop-opacity:1"/></linearGradient>
        <linearGradient id="_Linear5" x1="0" y1="0" x2="1" y2="0" gradientUnits="userSpaceOnUse" gradientTransform="matrix(2.48304e-14,405.512,-405.512,2.48304e-14,184,54.664)"><stop offset="0" style="stop-color:rgb(26,109,255);stop-opacity:1"/><stop offset="1" style="stop-color:rgb(200,34,255);stop-opacity:1"/></linearGradient>
        <linearGradient id="_Linear6" x1="0" y1="0" x2="1" y2="0" gradientUnits="userSpaceOnUse" gradientTransform="matrix(2.48304e-14,405.512,-405.512,2.48304e-14,328,54.664)"><stop offset="0" style="stop-color:rgb(26,109,255);stop-opacity:1"/><stop offset="1" style="stop-color:rgb(200,34,255);stop-opacity:1"/></linearGradient>
        <linearGradient id="_Linear7" x1="0" y1="0" x2="1" y2="0" gradientUnits="userSpaceOnUse" gradientTransform="matrix(2.48304e-14,405.512,-405.512,2.48304e-14,328,54.664)"><stop offset="0" style="stop-color:rgb(26,109,255);stop-opacity:1"/><stop offset="1" style="stop-color:rgb(200,34,255);stop-opacity:1"/></linearGradient>
        <linearGradient id="_Linear8" x1="0" y1="0" x2="1" y2="0" gradientUnits="userSpaceOnUse" gradientTransform="matrix(2.48304e-14,405.512,-405.512,2.48304e-14,184,54.664)"><stop offset="0" style="stop-color:rgb(26,109,255);stop-opacity:1"/><stop offset="1" style="stop-color:rgb(200,34,255);stop-opacity:1"/></linearGradient>
        <linearGradient id="_Linear9" x1="0" y1="0" x2="1" y2="0" gradientUnits="userSpaceOnUse" gradientTransform="matrix(2.48304e-14,405.512,-405.512,2.48304e-14,184,54.664)"><stop offset="0" style="stop-color:rgb(26,109,255);stop-opacity:1"/><stop offset="1" style="stop-color:rgb(200,34,255);stop-opacity:1"/></linearGradient>
        <linearGradient id="_Linear10" x1="0" y1="0" x2="1" y2="0" gradientUnits="userSpaceOnUse" gradientTransform="matrix(2.48304e-14,405.512,-405.512,2.48304e-14,296,54.664)"><stop offset="0" style="stop-color:rgb(26,109,255);stop-opacity:1"/><stop offset="1" style="stop-color:rgb(200,34,255);stop-opacity:1"/></linearGradient>
        <linearGradient id="_Linear11" x1="0" y1="0" x2="1" y2="0" gradientUnits="userSpaceOnUse" gradientTransform="matrix(2.48304e-14,405.512,-405.512,2.48304e-14,280,54.664)"><stop offset="0" style="stop-color:rgb(26,109,255);stop-opacity:1"/><stop offset="1" style="stop-color:rgb(200,34,255);stop-opacity:1"/></linearGradient>
        <linearGradient id="_Linear12" x1="0" y1="0" x2="1" y2="0" gradientUnits="userSpaceOnUse" gradientTransform="matrix(2.48304e-14,405.512,-405.512,2.48304e-14,320,54.664)"><stop offset="0" style="stop-color:rgb(26,109,255);stop-opacity:1"/><stop offset="1" style="stop-color:rgb(200,34,255);stop-opacity:1"/></linearGradient>
        <linearGradient id="_Linear13" x1="0" y1="0" x2="1" y2="0" gradientUnits="userSpaceOnUse" gradientTransform="matrix(2.48304e-14,405.512,-405.512,2.48304e-14,368,54.664)"><stop offset="0" style="stop-color:rgb(26,109,255);stop-opacity:1"/><stop offset="1" style="stop-color:rgb(200,34,255);stop-opacity:1"/></linearGradient>
        <linearGradient id="_Linear14" x1="0" y1="0" x2="1" y2="0" gradientUnits="userSpaceOnUse" gradientTransform="matrix(2.48304e-14,405.512,-405.512,2.48304e-14,328,54.664)"><stop offset="0" style="stop-color:rgb(26,109,255);stop-opacity:1"/><stop offset="1" style="stop-color:rgb(200,34,255);stop-opacity:1"/></linearGradient>
        <linearGradient id="_Linear15" x1="0" y1="0" x2="1" y2="0" gradientUnits="userSpaceOnUse" gradientTransform="matrix(2.48304e-14,405.512,-405.512,2.48304e-14,376,54.664)"><stop offset="0" style="stop-color:rgb(26,109,255);stop-opacity:1"/><stop offset="1" style="stop-color:rgb(200,34,255);stop-opacity:1"/></linearGradient>
        <linearGradient id="_Linear16" x1="0" y1="0" x2="1" y2="0" gradientUnits="userSpaceOnUse" gradientTransform="matrix(2.48304e-14,405.512,-405.512,2.48304e-14,356,54.664)"><stop offset="0" style="stop-color:rgb(26,109,255);stop-opacity:1"/><stop offset="1" style="stop-color:rgb(200,34,255);stop-opacity:1"/></linearGradient>
        <linearGradient id="_Linear17" x1="0" y1="0" x2="1" y2="0" gradientUnits="userSpaceOnUse" gradientTransform="matrix(2.48304e-14,405.512,-405.512,2.48304e-14,360,54.664)"><stop offset="0" style="stop-color:rgb(26,109,255);stop-opacity:1"/><stop offset="1" style="stop-color:rgb(200,34,255);stop-opacity:1"/></linearGradient>
        <linearGradient id="_Linear18" x1="0" y1="0" x2="1" y2="0" gradientUnits="userSpaceOnUse" gradientTransform="matrix(2.48304e-14,405.512,-405.512,2.48304e-14,296,54.664)"><stop offset="0" style="stop-color:rgb(26,109,255);stop-opacity:1"/><stop offset="1" style="stop-color:rgb(200,34,255);stop-opacity:1"/></linearGradient>
        <linearGradient id="_Linear19" x1="0" y1="0" x2="1" y2="0" gradientUnits="userSpaceOnUse" gradientTransform="matrix(2.2656e-15,37,-37,2.2656e-15,184,168)"><stop offset="0" style="stop-color:rgb(109,199,255);stop-opacity:1"/><stop offset="1" style="stop-color:rgb(230,171,255);stop-opacity:1"/></linearGradient>
        <linearGradient id="_Linear20" x1="0" y1="0" x2="1" y2="0" gradientUnits="userSpaceOnUse" gradientTransform="matrix(3.91887e-15,64,-64,3.91887e-15,368,112)"><stop offset="0" style="stop-color:rgb(109,199,255);stop-opacity:1"/><stop offset="1" style="stop-color:rgb(230,171,255);stop-opacity:1"/></linearGradient>
        <linearGradient id="_Linear21" x1="0" y1="0" x2="1" y2="0" gradientUnits="userSpaceOnUse" gradientTransform="matrix(2.5334e-14,413.736,-413.736,2.5334e-14,257.136,48)"><stop offset="0" style="stop-color:rgb(26,109,255);stop-opacity:1"/><stop offset="1" style="stop-color:rgb(200,34,255);stop-opacity:1"/></linearGradient>
    </defs>
</svg>
