<?xml version="1.0" encoding="UTF-8"?>
<svg id="Layer_1" data-name="Layer 1" xmlns="http://www.w3.org/2000/svg" viewBox="0 0 480 480">
  <defs>
    <style>
      .cls-1 {
        fill: #5e3bee;
      }
    </style>
  </defs>
  <path class="cls-1" d="m117.71,35.97c-.11.37-10.93,37.43,6.77,83.75,22.9,59.94,83.9,107.63,176.85,138.54l18.42-61.06c1.87-6.19,7.3-10.67,13.72-11.3,6.45-.65,12.63,2.66,15.69,8.36l74.88,139.58c4.18,7.8,1.26,17.48-6.53,21.66l-139.58,74.88c-5.7,3.06-12.69,2.4-17.7-1.71-5-4.08-7.05-10.82-5.18-17.01l18.56-61.52C23.12,265.59,79.66,51.32,87.07,26.73c2.56-8.47,11.48-13.25,19.94-10.7s13.25,11.47,10.7,19.94Z"/>
</svg>